<svg width="16" height="16" viewBox="0 0 16 16" fill="none" xmlns="http://www.w3.org/2000/svg">
<path d="M8 0.5C6.51664 0.5 5.0666 0.939867 3.83323 1.76398C2.59986 2.58809 1.63856 3.75943 1.07091 5.12987C0.50325 6.50032 0.354725 8.00832 0.644114 9.46318C0.933503 10.918 1.64781 12.2544 2.6967 13.3033C3.7456 14.3522 5.08197 15.0665 6.53683 15.3559C7.99168 15.6453 9.49968 15.4968 10.8701 14.9291C12.2406 14.3614 13.4119 13.4001 14.236 12.1668C15.0601 10.9334 15.5 9.48336 15.5 8C15.5 6.01088 14.7098 4.10322 13.3033 2.6967C11.8968 1.29018 9.98913 0.5 8 0.5ZM8 14.25C6.76387 14.25 5.5555 13.8834 4.52769 13.1967C3.49988 12.5099 2.6988 11.5338 2.22576 10.3918C1.75271 9.24973 1.62894 7.99307 1.8701 6.78069C2.11125 5.5683 2.70651 4.45466 3.58059 3.58058C4.45466 2.7065 5.56831 2.11125 6.78069 1.87009C7.99307 1.62893 9.24974 1.75271 10.3918 2.22575C11.5338 2.6988 12.5099 3.49988 13.1967 4.52769C13.8834 5.55549 14.25 6.76387 14.25 8C14.25 9.6576 13.5915 11.2473 12.4194 12.4194C11.2473 13.5915 9.65761 14.25 8 14.25Z" fill="#231F20"/>
<path d="M7.99981 6.56208C7.83405 6.56208 7.67508 6.62793 7.55787 6.74514C7.44066 6.86235 7.37481 7.02132 7.37481 7.18708V11.4371C7.37481 11.6028 7.44066 11.7618 7.55787 11.879C7.67508 11.9962 7.83405 12.0621 7.99981 12.0621C8.16557 12.0621 8.32454 11.9962 8.44175 11.879C8.55896 11.7618 8.62481 11.6028 8.62481 11.4371V7.18708C8.62481 7.02132 8.55896 6.86235 8.44175 6.74514C8.32454 6.62793 8.16557 6.56208 7.99981 6.56208ZM7.99981 3.99958C7.83061 4.00594 7.67027 4.07684 7.55172 4.19772C7.43316 4.3186 7.36538 4.48029 7.36231 4.64958V4.74958C7.36201 4.83112 7.3787 4.91184 7.4113 4.98658C7.4439 5.06133 7.4917 5.12847 7.55167 5.18373C7.61163 5.23899 7.68245 5.28117 7.7596 5.30757C7.83675 5.33397 7.91856 5.34402 7.99981 5.33708C8.16359 5.33089 8.319 5.26306 8.43489 5.14716C8.55079 5.03126 8.61862 4.87586 8.62481 4.71208V4.56208C8.6253 4.48264 8.60896 4.404 8.57687 4.33134C8.54478 4.25867 8.49766 4.19363 8.43861 4.14049C8.37957 4.08735 8.30994 4.04732 8.2343 4.02303C8.15867 3.99874 8.07875 3.99075 7.99981 3.99958Z" fill="#231F20"/>
</svg>
