<svg width="164" height="44" viewBox="0 0 164 44" fill="none" xmlns="http://www.w3.org/2000/svg">
<path d="M30.2103 28.1278L38.2419 23.491C38.6667 23.2455 38.9309 22.7883 38.9309 22.2973V13.0222C38.9309 12.5319 38.6667 12.074 38.2419 11.8285L30.2103 7.19168C29.7855 6.94616 29.257 6.94688 28.8322 7.19168L20.8006 11.8285C20.3758 12.074 20.1116 12.5312 20.1116 13.0222V29.5959L14.4797 32.8467L8.8479 29.5959V23.0922L14.4797 19.8414L18.1949 21.9855V17.623L15.1688 15.8763C14.96 15.7561 14.7217 15.6927 14.4797 15.6927C14.2378 15.6927 13.9995 15.7561 13.7907 15.8763L5.75838 20.5138C5.33358 20.7594 5.06934 21.2166 5.06934 21.7076V30.9819C5.06934 31.4722 5.33358 31.9302 5.75838 32.1757L13.79 36.8132C14.2148 37.058 14.7425 37.058 15.1681 36.8132L23.1997 32.1764C23.6245 31.9309 23.8887 31.473 23.8887 30.9826V14.409L23.9902 14.3506L29.5205 11.1582L35.1524 14.4097V20.9127L29.5205 24.1642L25.8111 22.023V26.3854L28.8315 28.13C29.2563 28.3748 29.7848 28.3748 30.2096 28.13L30.2103 28.1278Z" fill="url(#paint0_linear_6950_20946)"/>
<path d="M54.0477 35.4976V28.2432C54.8347 29.2334 56.2635 29.7882 57.918 29.7882C62.1432 29.7882 64.9975 26.7884 64.9975 22.2144C64.9975 17.6405 62.3754 14.6406 58.2696 14.6406C56.3764 14.6406 54.9185 15.3406 54.0445 16.476V14.8632H50V35.488L54.0477 35.4976ZM57.4181 26.2916C55.2314 26.2916 53.8058 24.6595 53.8058 22.2144C53.8058 19.7694 55.2314 18.1082 57.4181 18.1082C59.5436 18.1082 61.0014 19.721 61.0014 22.2144C61.0014 24.7079 59.5533 26.2916 57.4181 26.2916Z" fill="#0A0B0D"/>
<path d="M74.1899 29.7882C78.7052 29.7882 81.9305 26.582 81.9305 22.2144C81.9305 17.8469 78.7052 14.6406 74.1899 14.6406C69.6745 14.6406 66.4492 17.8437 66.4492 22.2144C66.4492 26.5852 69.6745 29.7882 74.1899 29.7882ZM74.1899 26.2916C72.0064 26.2916 70.5195 24.6304 70.5195 22.2144C70.5195 19.7984 72.0096 18.1082 74.1899 18.1082C76.3702 18.1082 77.8602 19.7662 77.8602 22.2144C77.8602 24.6627 76.3766 26.2916 74.1899 26.2916Z" fill="#0A0B0D"/>
<path d="M88.4359 29.5556V8.49219H84.3877V29.5556H88.4359Z" fill="#0A0B0D"/>
<path d="M100.604 14.875L97.5465 24.3423L94.4599 14.875H90.3154L95.6436 29.4388L93.4891 35.4998H97.3594L99.4397 29.5033L104.771 14.8815L100.604 14.875Z" fill="#0A0B0D"/>
<path d="M116.141 16.3309C115.325 15.3116 113.884 14.6406 112.094 14.6406C107.811 14.6406 105.221 17.6405 105.221 22.2144C105.221 26.7884 107.801 29.7882 112.152 29.7882C113.871 29.7882 115.413 29.1431 116.171 28.069V30.0044C116.171 31.372 115.267 32.3333 114.045 32.3333H107.288V35.5105H114.687C118.006 35.5105 120.218 33.501 120.218 30.4398V14.8729H116.141V16.3309ZM112.794 26.2916C110.636 26.2916 109.21 24.6788 109.21 22.2144C109.21 19.75 110.636 18.1082 112.794 18.1082C114.951 18.1082 116.403 19.721 116.403 22.2144C116.403 24.7079 114.977 26.2916 112.794 26.2916Z" fill="#0A0B0D"/>
<path d="M130.425 29.7882C134.941 29.7882 138.166 26.582 138.166 22.2144C138.166 17.8469 134.941 14.6406 130.425 14.6406C125.91 14.6406 122.685 17.8437 122.685 22.2144C122.685 26.5852 125.91 29.7882 130.425 29.7882ZM130.425 26.2916C128.238 26.2916 126.755 24.6304 126.755 22.2144C126.755 19.7984 128.238 18.1082 130.425 18.1082C132.612 18.1082 134.096 19.7662 134.096 22.2144C134.096 24.6627 132.609 26.2916 130.425 26.2916Z" fill="#0A0B0D"/>
<path d="M144.465 29.556V21.5145C144.465 19.621 145.717 18.2533 147.494 18.2533C149.184 18.2533 150.319 19.5436 150.319 21.3113V29.556H154.396V20.4081C154.396 17.0276 152.242 14.6406 148.913 14.6406C146.904 14.6406 145.275 15.4857 144.459 16.8986V14.8729H140.389V29.556H144.465Z" fill="#0A0B0D"/>
<defs>
<linearGradient id="paint0_linear_6950_20946" x1="7.9479" y1="32.2484" x2="37.0503" y2="11.0278" gradientUnits="userSpaceOnUse">
<stop stop-color="#A726C1"/>
<stop offset="0.88" stop-color="#803BDF"/>
<stop offset="1" stop-color="#7B3FE4"/>
</linearGradient>
</defs>
</svg>
