<svg width="14" height="14" viewBox="0 0 14 14" fill="none" xmlns="http://www.w3.org/2000/svg">
<path d="M10.8247 8.17808C11.9331 8.17808 12.8307 9.06065 12.8307 10.1495C12.8307 11.2378 11.9331 12.1204 10.8247 12.1204C9.71704 12.1204 8.81871 11.2378 8.81871 10.1495C8.81871 9.06065 9.71704 8.17808 10.8247 8.17808ZM5.87931 9.30881C6.36477 9.30881 6.75885 9.69597 6.75885 10.1729C6.75885 10.6492 6.36477 11.037 5.87931 11.037H2.04359C1.55813 11.037 1.16406 10.6492 1.16406 10.1729C1.16406 9.69597 1.55813 9.30881 2.04359 9.30881H5.87931ZM3.17007 1.75C4.2784 1.75 5.17608 2.63257 5.17608 3.72083C5.17608 4.80972 4.2784 5.69229 3.17007 5.69229C2.06239 5.69229 1.16406 4.80972 1.16406 3.72083C1.16406 2.63257 2.06239 1.75 3.17007 1.75ZM11.9518 2.85736C12.4367 2.85736 12.8307 3.24452 12.8307 3.72083C12.8307 4.19777 12.4367 4.58493 11.9518 4.58493H8.11613C7.63067 4.58493 7.23659 4.19777 7.23659 3.72083C7.23659 3.24452 7.63067 2.85736 8.11613 2.85736H11.9518Z" fill="#8247E5"/>
</svg>
